<svg width="81" height="15" viewBox="0 0 81 15" fill="none" xmlns="http://www.w3.org/2000/svg">
<path d="M6.93422 1.20312H9.14906V10.1768C9.14906 11.4014 8.76527 12.374 7.9977 13.0947C7.23598 13.8154 6.22816 14.1758 4.97426 14.1758C3.63832 14.1758 2.60707 13.8389 1.88051 13.165C1.15395 12.4912 0.790665 11.5537 0.790665 10.3525H3.00551C3.00551 11.0322 3.1725 11.5449 3.50648 11.8906C3.84633 12.2305 4.33559 12.4004 4.97426 12.4004C5.57191 12.4004 6.04652 12.2041 6.39809 11.8115C6.75551 11.4131 6.93422 10.8652 6.93422 10.168V1.20312ZM11.6314 9.15723C11.6314 8.22559 11.816 7.3877 12.1852 6.64355C12.5543 5.89355 13.0729 5.31934 13.7408 4.9209C14.4088 4.5166 15.1764 4.31445 16.0436 4.31445C17.3268 4.31445 18.3668 4.72754 19.1637 5.55371C19.9664 6.37988 20.4 7.47559 20.4645 8.84082L20.4732 9.3418C20.4732 10.2793 20.2916 11.1172 19.9283 11.8555C19.5709 12.5938 19.0553 13.165 18.3814 13.5693C17.7135 13.9736 16.94 14.1758 16.0611 14.1758C14.7193 14.1758 13.6441 13.7305 12.8355 12.8398C12.0328 11.9434 11.6314 10.751 11.6314 9.2627V9.15723ZM13.7672 9.3418C13.7672 10.3203 13.9693 11.0879 14.3736 11.6445C14.7779 12.1953 15.3404 12.4707 16.0611 12.4707C16.7818 12.4707 17.3414 12.1895 17.7398 11.627C18.1441 11.0645 18.3463 10.2412 18.3463 9.15723C18.3463 8.19629 18.1383 7.43457 17.7223 6.87207C17.3121 6.30957 16.7525 6.02832 16.0436 6.02832C15.3463 6.02832 14.7926 6.30664 14.3824 6.86328C13.9723 7.41406 13.7672 8.24023 13.7672 9.3418ZM24.9244 5.52734C25.6216 4.71875 26.5035 4.31445 27.5699 4.31445C29.5972 4.31445 30.6255 5.47168 30.6548 7.78613V14H28.5191V7.86523C28.5191 7.20898 28.3755 6.74609 28.0884 6.47656C27.8072 6.20117 27.3912 6.06348 26.8404 6.06348C25.9849 6.06348 25.3463 6.44434 24.9244 7.20605V14H22.7886V0.5H24.9244V5.52734ZM35.3433 4.49023L35.4048 5.58887C36.1079 4.73926 37.0308 4.31445 38.1734 4.31445C40.1538 4.31445 41.1616 5.44824 41.1968 7.71582V14H39.0611V7.83887C39.0611 7.23535 38.9292 6.79004 38.6656 6.50293C38.4077 6.20996 37.9829 6.06348 37.3911 6.06348C36.5298 6.06348 35.8882 6.45312 35.4663 7.23242V14H33.3306V4.49023H35.3433ZM49.1498 14V1.20312H52.9291C54.06 1.20312 55.062 1.45508 55.935 1.95898C56.8139 2.46289 57.4936 3.17773 57.9741 4.10352C58.4545 5.0293 58.6948 6.08984 58.6948 7.28516V7.92676C58.6948 9.13965 58.4516 10.2061 57.9653 11.126C57.4848 12.0459 56.7963 12.7549 55.8998 13.2529C55.0092 13.751 53.9868 14 52.8325 14H49.1498ZM51.3735 2.99609V12.2246H52.8237C53.9897 12.2246 54.8832 11.8613 55.5043 11.1348C56.1313 10.4023 56.4506 9.35352 56.4623 7.98828V7.27637C56.4623 5.8877 56.1606 4.82715 55.5571 4.09473C54.9536 3.3623 54.0776 2.99609 52.9291 2.99609H51.3735ZM60.8432 9.15723C60.8432 8.22559 61.0277 7.3877 61.3969 6.64355C61.766 5.89355 62.2846 5.31934 62.9525 4.9209C63.6205 4.5166 64.3881 4.31445 65.2553 4.31445C66.5385 4.31445 67.5785 4.72754 68.3754 5.55371C69.1781 6.37988 69.6117 7.47559 69.6762 8.84082L69.685 9.3418C69.685 10.2793 69.5033 11.1172 69.14 11.8555C68.7826 12.5938 68.267 13.165 67.5932 13.5693C66.9252 13.9736 66.1518 14.1758 65.2729 14.1758C63.9311 14.1758 62.8559 13.7305 62.0473 12.8398C61.2445 11.9434 60.8432 10.751 60.8432 9.2627V9.15723ZM62.9789 9.3418C62.9789 10.3203 63.1811 11.0879 63.5854 11.6445C63.9897 12.1953 64.5522 12.4707 65.2729 12.4707C65.9936 12.4707 66.5531 12.1895 66.9516 11.627C67.3559 11.0645 67.558 10.2412 67.558 9.15723C67.558 8.19629 67.35 7.43457 66.934 6.87207C66.5238 6.30957 65.9643 6.02832 65.2553 6.02832C64.558 6.02832 64.0043 6.30664 63.5941 6.86328C63.184 7.41406 62.9789 8.24023 62.9789 9.3418ZM76.2191 14.1758C74.8656 14.1758 73.767 13.751 72.9232 12.9014C72.0853 12.0459 71.6664 10.9092 71.6664 9.49121V9.22754C71.6664 8.27832 71.848 7.43164 72.2113 6.6875C72.5804 5.9375 73.0961 5.35449 73.7582 4.93848C74.4203 4.52246 75.1586 4.31445 75.973 4.31445C77.2679 4.31445 78.267 4.72754 78.9701 5.55371C79.6791 6.37988 80.0336 7.54883 80.0336 9.06055V9.92188H73.8197C73.8841 10.707 74.1449 11.3281 74.6019 11.7852C75.0648 12.2422 75.6449 12.4707 76.3421 12.4707C77.3207 12.4707 78.1175 12.0752 78.7328 11.2842L79.8841 12.3828C79.5033 12.9512 78.9935 13.3936 78.3548 13.71C77.722 14.0205 77.0101 14.1758 76.2191 14.1758ZM75.9642 6.02832C75.3783 6.02832 74.9037 6.2334 74.5404 6.64355C74.183 7.05371 73.9545 7.625 73.8548 8.35742H77.9242V8.19922C77.8773 7.48438 77.6869 6.94531 77.3529 6.58203C77.0189 6.21289 76.556 6.02832 75.9642 6.02832Z" fill="white"/>
</svg>
